<?xml version="1.0" standalone="no"?>
<!DOCTYPE svg PUBLIC "-//W3C//DTD SVG 20010904//EN"
 "http://www.w3.org/TR/2001/REC-SVG-20010904/DTD/svg10.dtd">
<svg version="1.0" xmlns="http://www.w3.org/2000/svg"
 width="700.000000pt" height="700.000000pt" viewBox="0 0 700.000000 700.000000"
 preserveAspectRatio="xMidYMid meet">
<metadata>
Created by potrace 1.11, written by Peter Selinger 2001-2013
</metadata>
<g transform="translate(0.000000,700.000000) scale(0.100000,-0.100000)"
fill="#000000" stroke="none">
<path d="M3482 6973 c0 -16 -2 -41 -5 -58 -3 -16 -8 -48 -11 -70 -3 -22 -12
-87 -20 -145 -8 -58 -18 -130 -22 -160 -3 -30 -8 -62 -9 -70 -2 -8 -6 -37 -9
-65 -4 -27 -9 -61 -11 -75 -6 -42 -17 -123 -21 -155 -5 -43 -34 -255 -39 -285
-2 -14 -6 -47 -10 -75 -3 -27 -8 -61 -10 -75 -2 -14 -6 -47 -10 -75 -10 -81
-17 -120 -21 -124 -5 -5 -6 -6 -79 -15 -91 -11 -285 -56 -330 -75 -11 -5 -49
-19 -85 -32 -156 -55 -362 -165 -497 -267 -70 -52 -74 -54 -97 -39 -13 9 -104
77 -203 152 -98 75 -191 146 -207 158 -57 43 -101 77 -113 87 -7 6 -88 67
-180 137 -145 109 -402 305 -440 335 -9 7 -15 6 -19 -5 -3 -9 24 -54 73 -117
336 -437 777 -1019 792 -1044 13 -22 10 -28 -45 -102 -190 -252 -321 -562
-378 -894 -3 -14 -5 -38 -5 -55 -2 -44 -11 -53 -61 -59 -25 -4 -61 -9 -80 -12
-36 -5 -60 -8 -145 -19 -27 -3 -61 -8 -75 -11 -14 -2 -43 -6 -65 -9 -22 -2
-53 -6 -70 -9 -16 -3 -68 -10 -115 -16 -47 -6 -96 -13 -110 -15 -69 -10 -137
-19 -150 -20 -8 -1 -42 -5 -75 -9 -33 -5 -69 -10 -80 -11 -68 -9 -195 -27
-220 -31 -16 -2 -43 -6 -60 -8 -16 -2 -50 -7 -75 -11 -25 -3 -54 -8 -65 -9
-11 -2 -20 -9 -20 -17 0 -9 17 -16 50 -20 28 -4 70 -9 95 -13 25 -3 110 -15
190 -25 80 -11 161 -23 180 -26 46 -7 103 -14 165 -21 28 -3 57 -7 65 -9 8 -2
42 -7 75 -10 33 -3 67 -8 75 -10 8 -2 38 -7 65 -10 28 -3 97 -13 155 -21 58
-8 121 -17 140 -19 19 -3 67 -9 105 -15 39 -5 75 -10 82 -10 11 0 17 -17 28
-95 6 -36 14 -79 31 -170 24 -125 154 -443 229 -561 19 -30 35 -57 35 -60 0
-2 29 -45 65 -93 36 -49 65 -92 65 -97 0 -7 -188 -261 -215 -290 -5 -6 -19
-23 -30 -38 -11 -15 -40 -53 -64 -84 -24 -32 -69 -91 -99 -132 -31 -41 -59
-77 -62 -80 -3 -3 -32 -41 -64 -85 -33 -44 -79 -105 -103 -135 -24 -30 -47
-59 -51 -65 -146 -193 -182 -243 -182 -253 0 -26 -8 -32 345 238 612 467 815
620 824 620 6 0 45 -26 88 -58 263 -195 616 -341 918 -378 90 -11 83 -1 100
-139 6 -46 6 -50 39 -285 14 -96 27 -197 30 -225 4 -27 8 -61 11 -75 2 -14 7
-47 10 -75 4 -27 8 -62 10 -78 2 -15 9 -64 15 -110 10 -79 37 -265 45 -317 2
-14 7 -54 10 -90 4 -36 9 -69 12 -73 6 -10 28 -3 29 9 0 10 17 136 19 144 1 3
4 32 9 65 4 33 9 71 11 85 6 40 56 409 70 515 3 22 10 72 16 110 5 39 11 84
13 100 5 38 26 192 31 225 2 14 9 64 15 113 13 97 7 91 105 102 285 34 646
184 905 376 44 32 82 59 84 59 2 0 21 -14 42 -30 22 -17 46 -36 56 -43 9 -6
190 -145 403 -307 213 -162 399 -304 415 -315 15 -11 74 -55 131 -98 65 -49
106 -74 112 -68 7 7 -84 138 -206 291 -7 8 -52 68 -102 134 -49 65 -152 200
-228 300 -76 99 -164 215 -194 256 -31 41 -59 77 -63 80 -3 3 -21 26 -39 52
l-33 46 59 79 c191 253 330 586 377 904 7 49 15 91 17 94 3 3 77 14 196 30 57
7 119 16 143 20 14 2 52 7 85 10 33 4 67 8 75 10 16 4 69 12 140 20 25 3 56 7
70 10 14 2 48 7 75 10 122 15 198 26 215 30 8 2 47 7 85 11 39 3 72 8 75 9 3
2 33 6 65 10 33 3 67 8 75 10 8 2 44 7 80 10 61 6 91 18 78 30 -8 8 -65 19
-153 29 -27 4 -61 8 -75 11 -14 2 -47 7 -75 10 -27 3 -61 8 -75 10 -14 2 -79
11 -145 20 -66 8 -131 17 -145 19 -33 6 -105 15 -155 21 -22 3 -69 9 -105 15
-36 5 -81 12 -100 14 -19 3 -71 10 -115 16 -45 5 -99 13 -120 15 -211 26 -197
19 -209 110 -5 37 -9 61 -21 125 -3 14 -7 36 -10 50 -15 79 -90 289 -146 408
-50 107 -129 238 -199 332 -31 41 -60 80 -63 87 -7 10 24 54 213 303 56 74
500 657 507 665 4 6 28 37 53 70 25 33 47 62 50 65 11 9 50 68 50 74 0 18 -38
0 -93 -43 -34 -26 -273 -209 -532 -405 -258 -196 -485 -369 -504 -384 -18 -15
-39 -30 -45 -34 -6 -4 -44 18 -83 48 -40 30 -77 54 -83 54 -5 0 -10 5 -10 10
0 6 -4 10 -10 10 -5 0 -35 16 -66 36 -182 116 -504 229 -739 260 -91 11 -83 1
-100 139 -3 22 -8 56 -10 76 -3 20 -8 54 -10 75 -3 22 -14 104 -26 184 -11 80
-22 163 -25 185 -3 22 -7 51 -9 65 -2 14 -6 48 -10 75 -3 28 -8 61 -10 75 -2
14 -9 63 -15 110 -6 47 -13 96 -15 110 -6 35 -36 268 -41 308 -5 50 -14 72
-29 72 -8 0 -14 -11 -13 -27z"/>
</g>
</svg>
