<?xml version="1.0" encoding="UTF-8"?>
<svg width="258px" height="258px" viewBox="0 0 258 258" version="1.1" xmlns="http://www.w3.org/2000/svg" xmlns:xlink="http://www.w3.org/1999/xlink">
    <!-- Generator: Sketch 47.1 (45422) - http://www.bohemiancoding.com/sketch -->
    <title>icon</title>
    <desc>Created with Sketch.</desc>
    <defs></defs>
    <g id="Page-1" stroke="none" stroke-width="1" fill="none" fill-rule="evenodd">
        <g id="A6" transform="translate(-20.000000, -81.000000)">
            <g id="icon" transform="translate(20.000000, 81.000000)">
                <g id="Sun" stroke="#FFCA28" stroke-width="1" fill="#FFF59D">
                    <polygon id="Triangle" points="129 0 137 59 121 59"></polygon>
                    <polygon id="Triangle" transform="translate(198.516504, 58.516504) rotate(45.000000) translate(-198.516504, -58.516504) " points="198.516504 29.0165043 206.516504 88.0165043 190.516504 88.0165043"></polygon>
                    <polygon id="Triangle" transform="translate(59.000000, 58.516504) scale(-1, 1) rotate(45.000000) translate(-59.000000, -58.516504) " points="59 29.0165043 67 88.0165043 51 88.0165043"></polygon>
                    <polygon id="Triangle" transform="translate(198.516504, 198.516504) scale(1, -1) rotate(45.000000) translate(-198.516504, -198.516504) " points="198.516504 169.016504 206.516504 228.016504 190.516504 228.016504"></polygon>
                    <polygon id="Triangle" transform="translate(59.000000, 198.516504) scale(-1, -1) rotate(45.000000) translate(-59.000000, -198.516504) " points="59 169.016504 67 228.016504 51 228.016504"></polygon>
                    <polygon id="Triangle" transform="translate(228.500000, 129.000000) rotate(90.000000) translate(-228.500000, -129.000000) " points="228.5 99.5 236.5 158.5 220.5 158.5"></polygon>
                    <polygon id="Triangle" transform="translate(29.500000, 129.000000) scale(-1, 1) rotate(90.000000) translate(-29.500000, -129.000000) " points="29.5 99.5 37.5 158.5 21.5 158.5"></polygon>
                    <polygon id="Triangle" transform="translate(129.000000, 228.500000) scale(1, -1) translate(-129.000000, -228.500000) " points="129 199 137 258 121 258"></polygon>
                    <circle id="Oval" cx="129" cy="129" r="75"></circle>
                </g>
                <path d="M129.057388,185.138074 C155.843199,185.138074 191.662824,141 177.557388,141 C163.451952,141 155.843199,155.683594 129.057388,155.683594 C102.271578,155.683594 92.7468741,141 80.5573882,141 C68.3679022,141 102.271578,185.138074 129.057388,185.138074 Z" id="Oval-2" fill="#000000"></path>
                <ellipse id="Oval" fill="#000000" cx="108" cy="106" rx="8" ry="17"></ellipse>
                <ellipse id="Oval" fill="#000000" cx="149" cy="106" rx="8" ry="17"></ellipse>
            </g>
        </g>
    </g>
</svg>
